<?xml version="1.0" encoding="utf-8"?>
<!-- Generator: Adobe Illustrator 17.0.2, SVG Export Plug-In . SVG Version: 6.00 Build 0)  -->
<!DOCTYPE svg PUBLIC "-//W3C//DTD SVG 1.1//EN" "http://www.w3.org/Graphics/SVG/1.1/DTD/svg11.dtd">
<svg version="1.1" id="Calque_1" xmlns="http://www.w3.org/2000/svg" xmlns:xlink="http://www.w3.org/1999/xlink" x="0px" y="0px"
	 width="349px" height="53px" viewBox="0 0 349 53" enable-background="new 0 0 349 53" xml:space="preserve">
<g>
	<path fill="#FFFFFF" d="M4,49h40.417V19.594H4V49z M24.623,24.483h6.748v2.818H27.72v5.404h3.514v2.821H27.72v5.764h3.709v2.82
		h-6.806V24.483z M16.985,24.483h3.1v16.808h3.289v2.82h-6.389V24.483z"/>
</g>
<g>
	<path fill="#FFFFFF" d="M194.013,31.738h-0.347v11.226h0.347c0.898,0,1.296-0.405,1.296-1.318v-8.59
		C195.309,32.143,194.911,31.738,194.013,31.738"/>
	<path fill="#FFFFFF" d="M181.798,25.706V49h32.068V25.705L181.798,25.706z M197.788,41.712c0,2.321-1.126,3.447-3.443,3.447h-3.16
		V29.548h3.16c2.317,0,3.443,1.124,3.443,3.44V41.712z M204.476,45.159h-5.425V29.548h5.381v2.258h-2.902v4.271h2.792v2.26h-2.792
		V42.9h2.946V45.159z"/>
</g>
<polygon fill="#FFFFFF" points="313.975,34.153 316.643,34.153 315.298,23.214 "/>
<path fill="#FFFFFF" d="M248.337,20.386h-0.824c-1.002,0-1.447,0.449-1.447,1.45v16.599c0,1,0.445,1.445,1.447,1.445h0.824
	c0.975,0,1.41-0.445,1.41-1.445V21.836C249.747,20.834,249.311,20.386,248.337,20.386"/>
<path fill="#FFFFFF" d="M289.556,20.732h-1.859v8.485h1.709c1.062,0,1.557-0.481,1.557-1.52v-5.556
	C290.962,21.18,290.517,20.732,289.556,20.732"/>
<path fill="#FFFFFF" d="M215.388,49h122.674V11.046H215.388V49z M239.67,43.454h-4.133V24.703l-2.677,18.751h-4.106l-2.716-19.016
	v19.016h-3.645V16.976h6.188l0.008,0.081l2.426,18.419l2.506-18.5h6.149V43.454z M253.954,38.622c0,3.303-1.678,4.975-4.977,4.975
	h-2.143c-3.299,0-4.975-1.672-4.975-4.975V21.646c0-3.303,1.676-4.978,4.975-4.978h2.143c3.299,0,4.977,1.675,4.977,4.978V38.622z
	 M268.825,43.454H264.3l-0.018-0.073l-3.9-16.857l0.029,3.767v13.164h-3.793V16.976h4.863l0.018,0.071l3.56,15.394l-0.027-3.538
	V16.976h3.793V43.454z M281.71,20.809h-3.603v22.646h-4.207V20.809h-3.604v-3.832h11.414V20.809z M295.206,43.454h-4.207v-8.956
	c0-1.119-0.475-1.597-1.594-1.597h-1.709v10.553h-4.209V16.976h6.707c3.301,0,4.975,1.673,4.975,4.977v4.957
	c0,2.089-0.654,3.347-2.113,4.038c1.504,0.495,2.15,1.547,2.15,3.472V43.454z M306.847,43.454h-9.203V16.976h2.471l1.459-3.022
	h4.022l-1.891,3.022h3.066v3.832h-4.92v7.247h4.73v3.83h-4.73v7.739h4.996V43.454z M317.835,43.454l-0.717-5.559h-3.617
	l-0.664,5.559h-3.895l0.012-0.107l3.754-26.318h5.476l0.012,0.08l3.797,26.346H317.835z M332.727,43.454h-8.641V16.976h4.209v22.648
	h4.432V43.454z"/>
<g>
	<polygon fill="#FFFFFF" points="147.99,30.763 151.546,30.763 149.756,16.187 	"/>
	<path fill="#FFFFFF" d="M74.926,12.84h-1.083c-1.325,0-1.913,0.588-1.913,1.916v21.743c0,1.324,0.589,1.914,1.913,1.914h1.083
		c1.274,0,1.866-0.608,1.866-1.914V14.756C76.792,13.447,76.2,12.84,74.926,12.84"/>
	<path fill="#FFFFFF" d="M111.923,13.185h-2.455v11.159h2.258c1.406,0,2.062-0.641,2.062-2.015V15.05
		C113.787,13.777,113.194,13.185,111.923,13.185"/>
	<path fill="#FFFFFF" d="M45.938,49h134.438V2.251H45.938V49z M63.366,36.449c0,4.31-2.186,6.495-6.495,6.495h-3.739v-4.976h2.853
		c1.325,0,1.916-0.59,1.916-1.913V12.787H55.02v-4.48h2.881h2.53h2.935 M82.26,36.742c0,4.314-2.187,6.499-6.497,6.499h-2.805
		c-4.31,0-6.497-2.185-6.497-6.499V14.51c0-4.311,2.187-6.498,6.497-6.498h2.805c4.31,0,6.497,2.187,6.497,6.498V36.742z
		 M100.904,36.742c0,4.314-2.185,6.499-6.497,6.499H91.85c-4.312,0-6.498-2.185-6.498-6.499V8.307h5.469v28.192
		c0,1.324,0.591,1.915,1.914,1.915h0.836c1.272,0,1.865-0.608,1.865-1.915V8.307h5.468V36.742z M119.306,42.944h-5.471V31.233
		c0-1.46-0.65-2.11-2.108-2.11h-2.259v13.822h-5.471V8.307h8.762c4.312,0,6.496,2.186,6.496,6.498v6.494
		c0,2.75-0.868,4.396-2.806,5.292c1.997,0.636,2.856,2.01,2.856,4.545V42.944z M138.751,42.946h-5.889l-0.02-0.079L127.69,20.6
		l0.041,5.122v17.222h-4.924V8.307h6.329l0.018,0.077l4.711,20.348l-0.042-4.826V8.307h4.927V42.946z M153.109,42.946l-0.946-7.305
		h-4.79l-0.874,7.305h-5.078l4.949-34.687h7.16l0.015,0.087l4.985,34.6H153.109z M172.879,42.946h-11.273V8.307h5.468v29.662h5.805
		V42.946z"/>
</g>
</svg>
